<?xml version="1.0" encoding="UTF-8" standalone="no"?>
<!-- Created with Inkscape (http://www.inkscape.org/) -->

<svg
   xmlns:dc="http://purl.org/dc/elements/1.1/"
   xmlns:cc="http://creativecommons.org/ns#"
   xmlns:rdf="http://www.w3.org/1999/02/22-rdf-syntax-ns#"
   xmlns:svg="http://www.w3.org/2000/svg"
   xmlns="http://www.w3.org/2000/svg"
   xmlns:sodipodi="http://sodipodi.sourceforge.net/DTD/sodipodi-0.dtd"
   xmlns:inkscape="http://www.inkscape.org/namespaces/inkscape"
   id="svg3247"
   version="1.1"
   inkscape:version="0.48.4 r9939"
   width="990"
   height="765"
   xml:space="preserve"
   sodipodi:docname="dual_weight_text.svg"><metadata
     id="metadata3253"><rdf:RDF><cc:Work
         rdf:about=""><dc:format>image/svg+xml</dc:format><dc:type
           rdf:resource="http://purl.org/dc/dcmitype/StillImage" /><dc:title></dc:title></cc:Work></rdf:RDF></metadata><defs
     id="defs3251"><clipPath
       clipPathUnits="userSpaceOnUse"
       id="clipPath3261"><path
         d="m 290.31006,-270.83398 c 0,0 -35.72266,0 -35.72266,0 0,0 0,-71.37452 0,-71.37452 0,0 35.72266,0 35.72266,0 0,0 0,71.37452 0,71.37452 z"
         id="path3263" /></clipPath><clipPath
       clipPathUnits="userSpaceOnUse"
       id="clipPath3281"><path
         d="m 320.55029,-277.92578 c 0,0 -30.43652,0 -30.43652,0 0,0 0,-55.53662 0,-55.53662 0,0 30.43652,0 30.43652,0 0,0 0,55.53662 0,55.53662 z"
         id="path3283" /></clipPath><clipPath
       clipPathUnits="userSpaceOnUse"
       id="clipPath3291"><path
         d="m 290.13818,-282.74219 c -13.1123,0 -23.74218,-10.6289 -23.74218,-23.7417 0,-13.11328 10.62988,-23.74218 23.74218,-23.74218 13.11328,0 23.74219,10.6289 23.74219,23.74218 0,13.1128 -10.62891,23.7417 -23.74219,23.7417 z m -0.0742,-58.03369 c -18.96484,0 -34.33984,15.37598 -34.33984,34.34082 0,18.96631 15.375,34.34131 34.33984,34.34131 18.96583,0 34.3418,-15.375 34.3418,-34.34131 0,-18.96484 -15.37597,-34.34082 -34.3418,-34.34082 z"
         id="path3293" /></clipPath></defs><sodipodi:namedview
     pagecolor="#ffffff"
     bordercolor="#666666"
     borderopacity="1"
     objecttolerance="10"
     gridtolerance="10"
     guidetolerance="10"
     inkscape:pageopacity="0"
     inkscape:pageshadow="2"
     inkscape:window-width="1085"
     inkscape:window-height="529"
     id="namedview3249"
     showgrid="false"
     inkscape:zoom="0.87256052"
     inkscape:cx="385.58418"
     inkscape:cy="445.744"
     inkscape:window-x="101"
     inkscape:window-y="105"
     inkscape:window-maximized="0"
     inkscape:current-layer="g3255" /><g
     id="g3255"
     inkscape:groupmode="layer"
     inkscape:label="daedafusion_logo_r1v2"
     transform="matrix(1.25,0,0,-1.25,0,765)"><g
       id="g3257"
       transform="scale(1,-1)"
       style="fill:#ffffff;fill-opacity:1"><g
         id="g3259"
         clip-path="url(#clipPath3261)"
         style="fill:#ffffff;fill-opacity:1"><path
           d="m 258.44092,-306.38525 c 0,-17.46436 14.20849,-31.67286 31.67285,-31.67286 17.46436,0 31.67285,14.2085 31.67285,31.67286 0,17.46435 -14.20849,31.67236 -31.67285,31.67236 -17.46436,0 -31.67285,-14.20801 -31.67285,-31.67236 z m -2.66797,0 c 0,18.93505 15.40527,34.34033 34.34082,34.34033 18.93555,0 34.34082,-15.40528 34.34082,-34.34033 0,-18.93555 -15.40527,-34.34082 -34.34082,-34.34082 -18.93555,0 -34.34082,15.40527 -34.34082,34.34082 z"
           style="fill:#ffffff;fill-opacity:1;fill-rule:nonzero;stroke:none"
           id="path3265" /><path
           d="m 263.77783,-306.48389 c 0,7.86377 3.46631,15.26514 9.50977,20.30518 0,0 1.70898,-2.04883 1.70898,-2.04883 -5.43408,-4.53223 -8.55078,-11.18652 -8.55078,-18.25635 0,-13.10547 10.66162,-23.76757 23.7666,-23.76757 13.10547,0 23.76758,10.6621 23.76758,23.76757 0,13.10401 -10.66211,23.76514 -23.76758,23.76514 -3.50342,0 -6.87353,-0.74316 -10.01758,-2.20703 0,0 -1.12695,2.41797 -1.12695,2.41797 3.49951,1.63086 7.24902,2.45703 11.14453,2.45703 14.57666,0 26.43555,-11.85742 26.43555,-26.43311 0,-14.57666 -11.85889,-26.43554 -26.43555,-26.43554 -14.57617,0 -26.43457,11.85888 -26.43457,26.43554 z"
           style="fill:#ffffff;fill-opacity:1;fill-rule:nonzero;stroke:none"
           id="path3267" /><path
           d="m 273.88428,-315.37402 c 0,0 2.35156,1.26074 2.35156,1.26074 2.78857,-5.19971 8.18213,-8.43018 14.0752,-8.43018 8.80029,0 15.95996,7.15967 15.95996,15.95996 0,8.8003 -7.15967,15.96045 -15.95996,15.96045 -8.22608,0 -15.21094,-6.41113 -15.90186,-14.59619 0,0 -2.65918,0.22412 -2.65918,0.22412 0.80664,9.55567 8.95996,17.04004 18.56104,17.04004 10.27148,0 18.62792,-8.35644 18.62792,-18.62842 0,-10.27148 -8.35644,-18.62793 -18.62792,-18.62793 -6.87842,0 -13.17237,3.76954 -16.42676,9.83741 z"
           style="fill:#ffffff;fill-opacity:1;fill-rule:nonzero;stroke:none"
           id="path3269" /><path
           d="m 266.88232,-299.7168 c 0,0 1.00391,2.47266 1.00391,2.47266 0,0 6.32422,-2.56836 6.32422,-2.56836 0,0 -1.00391,-2.47266 -1.00391,-2.47266 0,0 -6.32422,2.56836 -6.32422,2.56836 z"
           style="fill:#ffffff;fill-opacity:1;fill-rule:nonzero;stroke:none"
           id="path3271" /><path
           d="m 278.21582,-294.98145 c 0,0 2.05566,1.70118 2.05566,1.70118 0,0 4.74317,-5.73243 4.74317,-5.73243 0,0 -2.05567,-1.70117 -2.05567,-1.70117 0,0 -4.74316,5.73242 -4.74316,5.73242 z"
           style="fill:#ffffff;fill-opacity:1;fill-rule:nonzero;stroke:none"
           id="path3273" /><path
           d="m 270.05322,-331.50293 c 0,0 4.15039,5.83008 4.15039,5.83008 0,0 2.17383,-1.54785 2.17383,-1.54785 0,0 -4.15039,-5.83008 -4.15039,-5.83008 0,0 -2.17383,1.54785 -2.17383,1.54785 z"
           style="fill:#ffffff;fill-opacity:1;fill-rule:nonzero;stroke:none"
           id="path3275" /></g></g><g
       id="g3277"
       transform="scale(1,-1)"><g
         id="g3279"
         clip-path="url(#clipPath3281)"><path
           d="m 271.68311,-306.5835 c 0,5.54053 2.44238,10.75635 6.70117,14.30909 0,0 1.70898,-2.04883 1.70898,-2.04883 -3.64892,-3.04492 -5.74219,-7.51367 -5.74219,-12.26026 0,-8.80029 7.15967,-15.95996 15.95997,-15.95996 8.80029,0 15.95996,7.15967 15.95996,15.95996 0,8.8003 -7.15967,15.96045 -15.95996,15.96045 -2.34961,0 -4.6128,-0.49902 -6.72706,-1.4834 0,0 -1.12597,2.41993 -1.12597,2.41993 2.46972,1.14843 5.11133,1.73144 7.85303,1.73144 10.27148,0 18.62792,-8.35644 18.62792,-18.62842 0,-10.27148 -8.35644,-18.62793 -18.62792,-18.62793 -10.27149,0 -18.62793,8.35645 -18.62793,18.62793 z"
           style="fill:#fbbc09;fill-opacity:1;fill-rule:nonzero;stroke:none"
           id="path3285" /></g></g><g
       id="g3287"
       transform="scale(1,-1)"><g
         id="g3289"
         clip-path="url(#clipPath3291)"><path
           d="m 294.04395,-328.03516 c 0,0 2.56347,0.74121 2.56347,0.74121 0,0 3.55469,-12.28906 3.55469,-12.28906 0,0 -2.56348,-0.74121 -2.56348,-0.74121 0,0 -3.55468,12.28906 -3.55468,12.28906 z"
           style="fill:#fbbc09;fill-opacity:1;fill-rule:nonzero;stroke:none"
           id="path3295" /><path
           d="m 300.58398,-325.41357 c 0,0 2.19434,1.51757 2.19434,1.51757 0,0 7.27637,-10.52148 7.27637,-10.52148 0,0 -2.19434,-1.51758 -2.19434,-1.51758 0,0 -7.27637,10.52149 -7.27637,10.52149 z"
           style="fill:#fbbc09;fill-opacity:1;fill-rule:nonzero;stroke:none"
           id="path3297" /><path
           d="m 305.9502,-320.82324 c 0,0 1.60449,2.13183 1.60449,2.13183 0,0 10.22168,-7.69238 10.22168,-7.69238 0,0 -1.60449,-2.13184 -1.60449,-2.13184 0,0 -10.22168,7.69239 -10.22168,7.69239 z"
           style="fill:#fbbc09;fill-opacity:1;fill-rule:nonzero;stroke:none"
           id="path3299" /><path
           d="m 309.61133,-314.80225 c 0,0 0.84472,2.53125 0.84472,2.53125 0,0 12.13575,-4.04882 12.13575,-4.04882 0,0 -0.84473,-2.53125 -0.84473,-2.53125 0,0 -12.13574,4.04882 -12.13574,4.04882 z"
           style="fill:#fbbc09;fill-opacity:1;fill-rule:nonzero;stroke:none"
           id="path3301" /><path
           d="m 311.17822,-307.92041 c 0,0 0,2.66797 0,2.66797 0,0 12.79297,0 12.79297,0 0,0 0,-2.66797 0,-2.66797 0,0 -12.79297,0 -12.79297,0 z"
           style="fill:#fbbc09;fill-opacity:1;fill-rule:nonzero;stroke:none"
           id="path3303" /><path
           d="m 309.61133,-298.37109 c 0,0 12.13574,4.04882 12.13574,4.04882 0,0 0.84473,-2.53125 0.84473,-2.53125 0,0 -12.13575,-4.04882 -12.13575,-4.04882 0,0 -0.84472,2.53125 -0.84472,2.53125 z"
           style="fill:#fbbc09;fill-opacity:1;fill-rule:nonzero;stroke:none"
           id="path3305" /><path
           d="m 305.9502,-292.34961 c 0,0 10.22168,7.69141 10.22168,7.69141 0,0 1.60449,-2.13282 1.60449,-2.13282 0,0 -10.22168,-7.6914 -10.22168,-7.6914 0,0 -1.60449,2.13281 -1.60449,2.13281 z"
           style="fill:#fbbc09;fill-opacity:1;fill-rule:nonzero;stroke:none"
           id="path3307" /><path
           d="m 300.58398,-287.76074 c 0,0 7.27637,10.52344 7.27637,10.52344 0,0 2.19434,-1.51758 2.19434,-1.51758 0,0 -7.27637,-10.52344 -7.27637,-10.52344 0,0 -2.19434,1.51758 -2.19434,1.51758 z"
           style="fill:#fbbc09;fill-opacity:1;fill-rule:nonzero;stroke:none"
           id="path3309" /><path
           d="m 294.04492,-285.13672 c 0,0 3.55371,12.28906 3.55371,12.28906 0,0 2.56348,-0.74218 2.56348,-0.74218 0,0 -3.55371,-12.28907 -3.55371,-12.28907 0,0 -2.56348,0.74219 -2.56348,0.74219 z"
           style="fill:#fbbc09;fill-opacity:1;fill-rule:nonzero;stroke:none"
           id="path3311" /><path
           d="m 287.86572,-341.00244 c 0,0 0,12.82031 0,12.82031 0,0 2.66797,0 2.66797,0 0,0 0,-12.82031 0,-12.82031 0,0 -2.66797,0 -2.66797,0 z"
           style="fill:#fbbc09;fill-opacity:1;fill-rule:nonzero;stroke:none"
           id="path3313" /><path
           d="m 287.86572,-284.58984 c 0,0 0,12.82031 0,12.82031 0,0 2.66797,0 2.66797,0 0,0 0,-12.82031 0,-12.82031 0,0 -2.66797,0 -2.66797,0 z"
           style="fill:#fbbc09;fill-opacity:1;fill-rule:nonzero;stroke:none"
           id="path3315" /></g></g><path
       inkscape:connector-curvature="0"
       id="path3319"
       style="fill:#ffffff;fill-opacity:1;fill-rule:nonzero;stroke:none"
       d="m 282.75146,306.5835 c 0,4.16845 3.39112,7.55957 7.55958,7.55957 4.16845,0 7.55957,-3.39112 7.55957,-7.55957 0,-4.16846 -3.39112,-7.56006 -7.55957,-7.56006 -4.16846,0 -7.55958,3.3916 -7.55958,7.56006 z m -2.66796,0 c 0,-5.64014 4.58789,-10.22803 10.22754,-10.22803 5.63964,0 10.22753,4.58789 10.22753,10.22803 0,5.63964 -4.58789,10.22754 -10.22753,10.22754 -5.63965,0 -10.22754,-4.5879 -10.22754,-10.22754 z" /></g></svg>
